<svg width="21" height="21" viewBox="0 0 21 21" fill="none" xmlns="http://www.w3.org/2000/svg">
<rect y="7.82812" width="11.0713" height="17.2129" transform="rotate(-45 0 7.82812)" fill="white"/>
<mask id="path-2-inside-1_1959_7311" fill="white">
<path d="M0.0353088 7.68319C0.0353088 8.35366 0.263638 9.05081 0.740371 9.58535H0.767135L0.793063 9.6112L10.49 19.358C11.502 20.367 13.1521 20.3612 14.2269 19.4097L14.2536 19.3838V19.358L19.2719 14.3545C20.2839 13.3446 20.278 11.6993 19.3237 10.6277H19.2978L9.57498 0.933493C8.51613 -0.122242 6.82331 -0.154763 5.8113 0.855106L0.793063 5.85859C0.551471 6.09724 0.360024 6.38152 0.229915 6.69481C0.0998072 7.0081 0.0336488 7.34411 0.0353088 7.68319ZM1.73398 7.70905C1.73398 7.44219 1.80591 7.19452 1.969 7.03107L6.98724 2.02759C7.31092 1.7057 8.05254 1.72559 8.5 2.1709L12.6068 6.30223L6.20356 12.6867L1.99577 8.46457L1.969 8.43872C1.79336 8.22691 1.73398 7.96339 1.73398 7.70905ZM7.40543 13.885L13.8087 7.50057L18.0692 11.7485C18.0759 11.7577 18.0893 11.7652 18.0959 11.7744C18.4556 12.2047 18.4121 12.866 18.0959 13.182L13.1296 18.158C13.1128 18.1713 13.0936 18.1713 13.0769 18.1847C12.6461 18.5266 11.9795 18.4974 11.6659 18.1847L7.40543 13.885Z"/>
</mask>
<path d="M0.0353088 7.68319C0.0353088 8.35366 0.263638 9.05081 0.740371 9.58535H0.767135L0.793063 9.6112L10.49 19.358C11.502 20.367 13.1521 20.3612 14.2269 19.4097L14.2536 19.3838V19.358L19.2719 14.3545C20.2839 13.3446 20.278 11.6993 19.3237 10.6277H19.2978L9.57498 0.933493C8.51613 -0.122242 6.82331 -0.154763 5.8113 0.855106L0.793063 5.85859C0.551471 6.09724 0.360024 6.38152 0.229915 6.69481C0.0998072 7.0081 0.0336488 7.34411 0.0353088 7.68319ZM1.73398 7.70905C1.73398 7.44219 1.80591 7.19452 1.969 7.03107L6.98724 2.02759C7.31092 1.7057 8.05254 1.72559 8.5 2.1709L12.6068 6.30223L6.20356 12.6867L1.99577 8.46457L1.969 8.43872C1.79336 8.22691 1.73398 7.96339 1.73398 7.70905ZM7.40543 13.885L13.8087 7.50057L18.0692 11.7485C18.0759 11.7577 18.0893 11.7652 18.0959 11.7744C18.4556 12.2047 18.4121 12.866 18.0959 13.182L13.1296 18.158C13.1128 18.1713 13.0936 18.1713 13.0769 18.1847C12.6461 18.5266 11.9795 18.4974 11.6659 18.1847L7.40543 13.885Z" fill="#FF0000"/>
<path d="M0.0353088 7.68319L2.03533 7.68319L2.03528 7.6734L0.0353088 7.68319ZM0.740371 9.58535L-0.752245 10.9166L-0.155772 11.5854H0.740371L0.740371 9.58535ZM0.767135 9.58535L2.17926 8.16905L1.59383 7.58535H0.767135L0.767135 9.58535ZM0.793063 9.6112L2.21091 8.20061L2.20519 8.1949L0.793063 9.6112ZM10.49 19.358L9.07212 20.7686L9.07784 20.7743L10.49 19.358ZM14.2269 19.4097L15.5526 20.9072L15.5851 20.8784L15.6164 20.8482L14.2269 19.4097ZM14.2536 19.3838L15.6432 20.8223L16.2536 20.2326V19.3838H14.2536ZM14.2536 19.358L12.8415 17.9417L12.2536 18.5278V19.358H14.2536ZM19.2719 14.3545L20.684 15.7708L20.6846 15.7702L19.2719 14.3545ZM19.3237 10.6277L20.8173 9.29763L20.2208 8.62774H19.3237V10.6277ZM19.2978 10.6277L17.8857 12.044L18.4711 12.6277H19.2978V10.6277ZM9.57498 0.933493L10.9871 -0.482801L10.9871 -0.482801L9.57498 0.933493ZM5.8113 0.855106L7.22343 2.2714L7.22401 2.27082L5.8113 0.855106ZM0.793063 5.85859L2.19861 7.28145L2.20519 7.27488L0.793063 5.85859ZM1.969 7.03107L0.556868 5.61478L0.553255 5.6184L1.969 7.03107ZM6.98724 2.02759L5.57694 0.609467L5.57511 0.611294L6.98724 2.02759ZM8.5 2.1709L9.91843 0.760877L9.9108 0.753284L8.5 2.1709ZM12.6068 6.30223L14.019 7.71852L15.4331 6.30851L14.0252 4.89223L12.6068 6.30223ZM6.20356 12.6867L4.78694 14.0985L6.19907 15.5154L7.61569 14.103L6.20356 12.6867ZM1.99577 8.46457L3.41238 7.05276L3.39894 7.03927L3.38524 7.02604L1.99577 8.46457ZM1.969 8.43872L0.429442 9.71534L0.500011 9.80044L0.579529 9.87725L1.969 8.43872ZM7.40543 13.885L5.9933 12.4687L4.58139 13.8765L5.98475 15.2927L7.40543 13.885ZM13.8087 7.50057L15.2208 6.08427L13.8087 4.67629L12.3966 6.08427L13.8087 7.50057ZM18.0692 11.7485L19.685 10.5699L19.5925 10.4431L19.4813 10.3322L18.0692 11.7485ZM18.0959 11.7744L16.4801 12.953L16.519 13.0063L16.5614 13.057L18.0959 11.7744ZM18.0959 13.182L16.6819 11.7676L16.6804 11.7692L18.0959 13.182ZM13.1296 18.158L14.3767 19.7215L14.4652 19.6509L14.5451 19.5708L13.1296 18.158ZM13.0769 18.1847L14.3203 19.7512L14.324 19.7482L13.0769 18.1847ZM11.6659 18.1847L10.2452 19.5924L10.2538 19.601L11.6659 18.1847ZM-1.96469 7.68319C-1.96469 8.78787 -1.59167 9.97534 -0.752245 10.9166L2.23299 8.25415C2.11895 8.12629 2.03531 7.91945 2.03531 7.68319H-1.96469ZM0.740371 11.5854H0.767135L0.767135 7.58535H0.740371L0.740371 11.5854ZM-0.64499 11.0017L-0.619062 11.0275L2.20519 8.1949L2.17926 8.16905L-0.64499 11.0017ZM-0.624774 11.0218L9.07213 20.7686L11.9078 17.9474L2.2109 8.20062L-0.624774 11.0218ZM9.07784 20.7743C10.892 22.5831 13.7455 22.507 15.5526 20.9072L12.9011 17.9122C12.5587 18.2154 12.112 18.151 11.9021 17.9417L9.07784 20.7743ZM15.6164 20.8482L15.6432 20.8223L12.8641 17.9453L12.8374 17.9712L15.6164 20.8482ZM16.2536 19.3838V19.358H12.2536V19.3838H16.2536ZM15.6658 20.7743L20.684 15.7708L17.8598 12.9382L12.8415 17.9417L15.6658 20.7743ZM20.6846 15.7702C22.5009 13.9578 22.4254 11.1033 20.8173 9.29763L17.8302 11.9579C18.1307 12.2953 18.0669 12.7315 17.8592 12.9388L20.6846 15.7702ZM19.3237 8.62774H19.2978V12.6277H19.3237V8.62774ZM20.7099 9.21145L10.9871 -0.482801L8.16285 2.34979L17.8857 12.044L20.7099 9.21145ZM10.9871 -0.482801C9.20278 -2.26189 6.24524 -2.40335 4.39858 -0.560604L7.22401 2.27082C7.40138 2.09382 7.82948 2.0174 8.16285 2.34979L10.9871 -0.482801ZM4.39917 -0.561188L-0.619068 4.4423L2.20519 7.27488L7.22343 2.2714L4.39917 -0.561188ZM-0.61247 4.43575C-1.04319 4.86123 -1.38484 5.36839 -1.61713 5.92774L2.07697 7.46189C2.10489 7.39466 2.14613 7.33325 2.1986 7.28143L-0.61247 4.43575ZM-1.61713 5.92774C-1.84943 6.4871 -1.96763 7.08723 -1.96467 7.69298L2.03528 7.6734C2.03493 7.601 2.04905 7.52911 2.07697 7.46189L-1.61713 5.92774ZM3.73398 7.70905C3.73398 7.74906 3.7293 7.83829 3.68868 7.96079C3.64705 8.08632 3.55953 8.26859 3.38475 8.44375L0.553255 5.6184C-0.117769 6.29088 -0.266018 7.13805 -0.266018 7.70905H3.73398ZM3.38113 8.44737L8.39937 3.44388L5.57511 0.611294L0.556872 5.61478L3.38113 8.44737ZM8.39754 3.44571C8.20168 3.64048 8.00024 3.7289 7.86951 3.76794C7.73626 3.80773 7.62828 3.81179 7.55279 3.80632C7.4138 3.79626 7.2432 3.74178 7.0892 3.58851L9.9108 0.753284C9.30934 0.154707 8.5442 -0.132374 7.84161 -0.183237C7.18589 -0.230706 6.27447 -0.0842108 5.57694 0.609468L8.39754 3.44571ZM7.08159 3.5809L11.1884 7.71223L14.0252 4.89223L9.91841 0.760898L7.08159 3.5809ZM11.1947 4.88594L4.79143 11.2704L7.61569 14.103L14.019 7.71852L11.1947 4.88594ZM7.62017 11.2749L3.41238 7.05276L0.579154 9.87638L4.78694 14.0985L7.62017 11.2749ZM3.38524 7.02604L3.35848 7.00019L0.579529 9.87725L0.606293 9.9031L3.38524 7.02604ZM3.50856 7.1621C3.72693 7.42544 3.73398 7.67467 3.73398 7.70905H-0.266018C-0.266018 8.25211 -0.140197 9.02837 0.429442 9.71534L3.50856 7.1621ZM8.81756 15.3013L15.2208 8.91686L12.3966 6.08427L5.9933 12.4687L8.81756 15.3013ZM12.3966 8.91686L16.657 13.1648L19.4813 10.3322L15.2208 6.08427L12.3966 8.91686ZM16.4534 12.9271C16.5087 13.003 16.5615 13.0643 16.6044 13.1106C16.6473 13.157 16.6856 13.194 16.7139 13.2204C16.7423 13.2467 16.766 13.2672 16.7801 13.2793C16.7875 13.2856 16.7935 13.2907 16.7974 13.2939C16.801 13.2969 16.8042 13.2996 16.8044 13.2997C16.8055 13.3006 16.8035 13.299 16.8012 13.297C16.7985 13.2948 16.7937 13.2908 16.7876 13.2856C16.7759 13.2756 16.7546 13.2572 16.7286 13.233C16.7025 13.2088 16.6664 13.1739 16.6255 13.1297C16.5847 13.0856 16.5338 13.0266 16.4801 12.953L19.7118 10.5958C19.6564 10.5199 19.6036 10.4586 19.5608 10.4123C19.5178 10.3659 19.4795 10.3289 19.4512 10.3025C19.4228 10.2762 19.3991 10.2557 19.385 10.2436C19.3777 10.2373 19.3716 10.2322 19.3677 10.229C19.3641 10.226 19.3609 10.2233 19.3607 10.2232C19.3596 10.2223 19.3616 10.2239 19.3639 10.2259C19.3666 10.2281 19.3714 10.2321 19.3775 10.2373C19.3892 10.2473 19.4105 10.2657 19.4365 10.2899C19.4626 10.3141 19.4987 10.349 19.5396 10.3932C19.5804 10.4373 19.6313 10.4963 19.685 10.5699L16.4534 12.9271ZM16.5614 13.057C16.3916 12.8538 16.3465 12.638 16.3498 12.479C16.3526 12.3449 16.3964 12.0531 16.6819 11.7676L19.5099 14.5964C20.1116 13.9949 20.3352 13.2144 20.3489 12.5631C20.3631 11.8868 20.1599 11.1252 19.6305 10.4918L16.5614 13.057ZM16.6804 11.7692L11.714 16.7451L14.5451 19.5708L19.5115 14.5949L16.6804 11.7692ZM11.8824 16.5945C11.954 16.5374 12.0241 16.4897 12.09 16.45C12.1554 16.4105 12.2145 16.3801 12.263 16.3572C12.3107 16.3347 12.35 16.3186 12.3737 16.3092C12.3858 16.3044 12.3953 16.3008 12.4007 16.2988C12.4056 16.297 12.4095 16.2955 12.4076 16.2962C12.4073 16.2963 12.4011 16.2986 12.394 16.3013C12.3864 16.3042 12.3745 16.3087 12.3603 16.3143C12.332 16.3255 12.2883 16.3435 12.2362 16.3681C12.1833 16.393 12.1198 16.4257 12.05 16.4678C11.9798 16.5102 11.9054 16.5607 11.8297 16.6211L14.324 19.7482C14.2525 19.8053 14.1823 19.8529 14.1165 19.8927C14.0511 19.9321 13.9919 19.9625 13.9435 19.9854C13.8957 20.0079 13.8564 20.024 13.8327 20.0335C13.8207 20.0382 13.8111 20.0419 13.8057 20.0439C13.8009 20.0457 13.7969 20.0472 13.7989 20.0464C13.7991 20.0463 13.8054 20.044 13.8124 20.0414C13.8201 20.0385 13.8319 20.034 13.8462 20.0283C13.8744 20.0172 13.9181 19.9992 13.9703 19.9746C14.0231 19.9496 14.0867 19.9169 14.1564 19.8749C14.2266 19.8325 14.301 19.7819 14.3767 19.7215L11.8824 16.5945ZM11.8334 16.6182C12.027 16.4645 12.219 16.4284 12.3556 16.4304C12.4662 16.4319 12.7731 16.4644 13.078 16.7684L10.2538 19.601C10.8723 20.2177 11.6694 20.4211 12.2994 20.43C12.9553 20.4392 13.696 20.2467 14.3203 19.7512L11.8334 16.6182ZM13.0866 16.7769L8.8261 12.4773L5.98475 15.2927L10.2452 19.5924L13.0866 16.7769Z" fill="black" mask="url(#path-2-inside-1_1959_7311)"/>
</svg>
